<svg xmlns="http://www.w3.org/2000/svg" xmlns:xlink="http://www.w3.org/1999/xlink" width="10" height="10" version="1.1" viewBox="0 0 10 10"><path fill="gray" d="M9.375 4.375c-0.345 0-0.625 0.28-0.625 0.625v3.75h-7.5v-3.75c0-0.345-0.28-0.625-0.625-0.625s-0.625 0.28-0.625 0.625v4.375c0 0.345 0.28 0.625 0.625 0.625h8.75c0.345 0 0.625-0.28 0.625-0.625v-4.375c0-0.345-0.28-0.625-0.625-0.625zM5.625 4.375v-3.826c0-0.303-0.28-0.549-0.625-0.549s-0.625 0.246-0.625 0.549v3.826h-1.875l2.5 2.5 2.5-2.5h-1.875z"/></svg>